<svg xmlns="http://www.w3.org/2000/svg" xmlns:xlink="http://www.w3.org/1999/xlink" viewBox="0 0 79.76 104.23"><defs><clipPath id="clip-path"><path d="M33.93,58.44H20.71v7.13H33.93a3.57,3.57,0,1,0,0-7.13Z" style="fill:none"/></clipPath><clipPath id="clip-path-2"><path d="M38.75,62.49C37.36,70,32.36,72.83,25.51,71.56c-7.33-1.35-10.52-5.67-9.13-13.2s4.7-15.82,14.17-14.07C40.79,46.18,40.14,55,38.75,62.49Z" style="fill:none"/></clipPath><clipPath id="clip-path-3"><path d="M47.36,67.43H20.1V81H47.36c4.09,0,7.43-3,7.43-6.78S51.45,67.43,47.36,67.43Z" style="fill:none"/></clipPath><clipPath id="clip-path-4"><path d="M57.3,75.12C54.44,89.44,44.12,94.77,30,92.36,14.88,89.79,8.29,81.58,11.16,67.27S20.85,37.2,40.38,40.52C61.51,44.12,60.17,60.81,57.3,75.12Z" style="fill:none"/></clipPath><clipPath id="clip-path-5"><path d="M35.75,86.17H21v3.71H35.75c2.22,0,2.79-.8,2.79-1.82S38,86.17,35.75,86.17Z" style="fill:none"/></clipPath><clipPath id="clip-path-6"><path d="M43.6,90.28C42.17,94.2,37,95.66,29.92,95c-7.56-.7-10.87-3-9.43-6.87s4.86-8.23,14.64-7.32C45.71,81.79,45,86.36,43.6,90.28Z" style="fill:none"/></clipPath></defs><title>encabezado</title><g style="isolation:isolate"><g id="Capa_2" data-name="Capa 2"><g id="Capa_2-2" data-name="Capa 2"><g style="clip-path:url(#clip-path)"><path d="M31.75,29.67a17.57,17.57,0,0,1,1.16,5.39,48.61,48.61,0,0,1-.45,9.7,7.35,7.35,0,0,0-3.16-.42A37.33,37.33,0,0,0,25.84,23,13.42,13.42,0,0,1,31.75,29.67Z" style="fill:#31826c"/><path d="M26,23.22A37.31,37.31,0,0,1,29.3,44.34a7.85,7.85,0,0,1,2.29.15C31.89,37.09,31.38,28.57,26,23.22Z" style="fill:#31826c;opacity:0.8;mix-blend-mode:multiply"/><path d="M40.49,24.74a11,11,0,0,0-2.44,3c-3,4.87-4,9.61-5,14.89,0,.23-.12.5-.34.57a.63.63,0,0,1-.38,0l-3.1-1a36.16,36.16,0,0,1,3.12-10.29,17.42,17.42,0,0,1,3.21-4.5A9.15,9.15,0,0,1,40.49,24.74Z" style="fill:#31826c"/><path d="M40.09,25.09c-6.06,3.24-7.91,11-9.59,17.42l1.84.6a.63.63,0,0,0,.38,0c.22-.07.3-.34.34-.57.94-5.28,2-10,5-14.89A11.86,11.86,0,0,1,40.09,25.09Z" style="fill:#31826c;opacity:0.8;mix-blend-mode:multiply"/><path d="M41.51,28.46c-3.63,4.33-6.43,11.5-7.72,17-1-.57-2.41-.73-3.46-1.3C31.51,41.52,33,36.78,34.67,34A13.42,13.42,0,0,1,41.51,28.46Z" style="fill:#31826c"/><path d="M41.3,28.72C36,32.34,33.79,38.84,31.44,44.58a14.51,14.51,0,0,1,2.35.84C35.06,40.06,37.77,33.08,41.3,28.72Z" style="fill:#31826c;opacity:0.8;mix-blend-mode:multiply"/><path d="M34.2,38.51A10.59,10.59,0,0,1,38,35.74a6.48,6.48,0,0,1,5.11.24,9,9,0,0,0-4.41,2.12A21.27,21.27,0,0,0,33,45.79c-.86-.23-2.06-.65-2.91-.87A22.62,22.62,0,0,1,34.2,38.51Z" style="fill:#31826c"/><path d="M31.15,45.22c.64.2,1.33.42,1.88.57a21.27,21.27,0,0,1,5.62-7.69A9,9,0,0,1,43.06,36l-.17-.08C37.47,35.63,33.22,40.32,31.15,45.22Z" style="fill:#31826c;opacity:0.8;mix-blend-mode:multiply"/><path d="M25.26,37a13.2,13.2,0,0,1,3.06,3.83,7.92,7.92,0,0,1,.83,4.77A3.34,3.34,0,0,0,26.48,45c-.43-3.9-3-7.19-5.63-10.09A6.6,6.6,0,0,1,25.26,37Z" style="fill:#31826c"/><path d="M21,35c2.59,2.87,5.08,6.12,5.5,9.95a2.9,2.9,0,0,1,.93-.06A13.27,13.27,0,0,0,21,35Z" style="fill:#31826c;opacity:0.8;mix-blend-mode:multiply"/><path d="M24.84,31.9a46.23,46.23,0,0,1,2.94,12.64L30.46,44A20.32,20.32,0,0,0,22.4,27.32,17.38,17.38,0,0,1,24.84,31.9Z" style="fill:#31826c"/><path d="M23.43,28.35a11.13,11.13,0,0,0-1-1,17.38,17.38,0,0,1,2.44,4.58,46.23,46.23,0,0,1,2.94,12.64l1.34-.27C28.15,38.41,27.44,33.15,23.43,28.35Z" style="fill:#31826c;opacity:0.8;mix-blend-mode:multiply"/><path d="M31.79,44.45a9.57,9.57,0,0,1,12.62-2.94A14.67,14.67,0,0,0,33.8,45.33,8.77,8.77,0,0,0,31.79,44.45Z" style="fill:#31826c"/><path d="M32.48,44.68a9,9,0,0,1,1.32.65A14.75,14.75,0,0,1,44.19,41.5,14.08,14.08,0,0,0,32.48,44.68Z" style="fill:#31826c;opacity:0.8;mix-blend-mode:multiply"/><path d="M32.08,44.45c-.63,0-2.11.61-2.74.6A29.18,29.18,0,0,0,27.7,31.88c1.92.72,3.47,2.87,4,5.28A18.13,18.13,0,0,1,32.08,44.45Z" style="fill:#31826c"/><path d="M31,43.72c.6.22,1.76,1.32,2.35,1.53a29.08,29.08,0,0,1,6.18-11.74c-2,0-4.26,1.46-5.64,3.51A18,18,0,0,0,31,43.72Z" style="fill:#31826c"/><path d="M39.47,33.59a29.13,29.13,0,0,0-6.11,11.66,7,7,0,0,1-1.3-.85C33,40,35.4,35.66,39.47,33.59Z" style="fill:#31826c;opacity:0.8;mix-blend-mode:multiply"/><path d="M38.75,62.49C37.36,70,32.36,72.83,25.51,71.56c-7.33-1.35-10.52-5.67-9.13-13.2s4.7-15.82,14.17-14.07C40.79,46.18,40.14,55,38.75,62.49Z" style="fill:#efb738"/><g style="clip-path:url(#clip-path-2)"><path d="M35,41.73a61.42,61.42,0,0,1-19.49,9" style="fill:#f9c431"/><path d="M37.72,44.54a38.91,38.91,0,0,1-4.71,4A82.27,82.27,0,0,1,18.86,55c-1.87.58-3.76,1.06-5.67,1.47" style="fill:#f9c431"/><path d="M40.92,47.49c-5.27,5.5-12.56,8.79-19.46,12A35.41,35.41,0,0,1,11,62.58" style="fill:#f9c431"/><path d="M42.43,52.6A63.22,63.22,0,0,1,31,59.78C24.9,63,18.69,66.31,11.91,67.6" style="fill:#f9c431"/><path d="M43.07,56.67c-1.53,1.4-3.08,2.8-4.73,4.06a59.77,59.77,0,0,1-6.86,4.36C26.37,68,21.05,70.66,15.3,71.84" style="fill:#f9c431"/><path d="M43.54,61.54c-6.25,6.29-14.18,10.65-22.28,14.27a7.83,7.83,0,0,1-3.35.9" style="fill:#f9c431"/><path d="M31.55,38.08c.11,2.28,1.46,4.3,2.85,6.12A47.42,47.42,0,0,0,49.15,57.41" style="fill:#f9c431"/><path d="M26.26,38.06a28.49,28.49,0,0,0,1.95,3.27,62.29,62.29,0,0,0,8,10.42A62.77,62.77,0,0,0,45,58.51a11.74,11.74,0,0,0,2.48,1.41,16.17,16.17,0,0,1,2.15.77" style="fill:#f9c431"/><path d="M22,38.22A15.61,15.61,0,0,0,24,42.55,75.28,75.28,0,0,0,39,60.75a24.55,24.55,0,0,0,5.88,4.1A29.86,29.86,0,0,0,48,66" style="fill:#f9c431"/><path d="M17.54,41.05A71.67,71.67,0,0,0,41.12,67.74a27.58,27.58,0,0,0,4.34,2.5,7.57,7.57,0,0,1,2.28,1.26" style="fill:#f9c431"/><path d="M15,45.57c2.33,5.68,6.57,10.34,10.79,14.8,1.52,1.62,3.05,3.22,4.59,4.82,3.08,3.18,6.27,6.4,10.24,8.36" style="fill:#f9c431"/><path d="M13.76,52.42C16,56.94,19.54,60.67,23,64.32c4.29,4.47,8.72,9,14.27,11.76" style="fill:#f9c431"/><path d="M12.29,57.43l7.37,10.41A32.25,32.25,0,0,0,22.91,72a23.79,23.79,0,0,0,3.25,2.67c1.57,1.12,3.21,2.16,4.84,3.19" style="fill:#f9c431"/></g><path d="M33.81,45.27c2.53,4,1.84,10,.85,15.38C33.29,68,29.08,71.33,23.28,71a19.68,19.68,0,0,0,2.23.54c6.85,1.27,11.85-1.54,13.24-9.07C40,55.87,40.62,48.29,33.81,45.27Z" style="fill:#efb738;mix-blend-mode:multiply"/><path d="M27.79,42.7a6.48,6.48,0,0,0-6.49,3.4A32.25,32.25,0,0,1,31,44.9,4,4,0,0,0,27.79,42.7Z" style="fill:#31826c"/><path d="M38.27,47.25c.4.69.86,1.71.69,1.76-3.77,1.09-7.41-3.71-7-5.22a5.92,5.92,0,0,1,3.8.73A7,7,0,0,1,38.27,47.25Z" style="fill:#31826c"/><path d="M27.73,32a29,29,0,0,1,1.61,13.07,7.47,7.47,0,0,0,1.51-.34C31.56,40.23,30.81,35.36,27.73,32Z" style="fill:#31826c;opacity:0.8;mix-blend-mode:multiply"/><path d="M29.4,43.21A13.84,13.84,0,0,0,21.6,46,31.87,31.87,0,0,1,31,44.9,3.33,3.33,0,0,0,29.4,43.21Z" style="fill:#31826c;opacity:0.8;mix-blend-mode:multiply"/><path d="M27.64,47A8.45,8.45,0,0,0,28,50.21a1.51,1.51,0,0,0,.4.83c1.92-1.58,3.47-3.41,3.64-5.9a2.26,2.26,0,0,0-.4-1.49,2,2,0,0,0-1.94-.32A4.75,4.75,0,0,0,27.64,47Z" style="fill:#31826c"/><path d="M32,45.14a2.26,2.26,0,0,0-.4-1.49,1.94,1.94,0,0,0-.89-.41A44.34,44.34,0,0,0,28.36,51l0,0C30.3,49.46,31.85,47.63,32,45.14Z" style="fill:#31826c;opacity:0.8;mix-blend-mode:multiply"/><path d="M31.93,43.83c-.32,1.54,3.24,6.19,7,5.21A15.45,15.45,0,0,0,31.93,43.83Z" style="fill:#31826c;opacity:0.8;mix-blend-mode:multiply"/></g><g style="clip-path:url(#clip-path-3)"><path d="M42.87,12.73A31.6,31.6,0,0,1,45.27,23a86.43,86.43,0,0,1-.94,18.45,16.09,16.09,0,0,0-6.53-.82A65.94,65.94,0,0,0,30.68,0C36.06,2.85,40.78,7.48,42.87,12.73Z" style="fill:#31826c"/><path d="M30.93.47A66,66,0,0,1,37.8,40.61a18.29,18.29,0,0,1,4.73.29C43.16,26.84,42.11,10.65,30.93.47Z" style="fill:#31826c;opacity:0.8;mix-blend-mode:multiply"/><path d="M60.89,3.36a21.94,21.94,0,0,0-5,5.61c-6.09,9.27-8.35,18.27-10.29,28.31-.08.43-.23.94-.69,1.07a1.35,1.35,0,0,1-.79-.08l-6.4-1.9a65.19,65.19,0,0,1,6.44-19.56,33.45,33.45,0,0,1,6.62-8.55A19.37,19.37,0,0,1,60.89,3.36Z" style="fill:#31826c"/><path d="M60.06,4C47.57,10.18,43.75,24.92,40.28,37.14l3.8,1.13a1.35,1.35,0,0,0,.79.08c.46-.13.61-.64.69-1.07,1.94-10,4.2-19,10.29-28.31A23.08,23.08,0,0,1,60.06,4Z" style="fill:#31826c;opacity:0.8;mix-blend-mode:multiply"/><path d="M63,10.43c-7.48,8.24-13.26,21.86-15.94,32.24-2.16-1.07-5-1.39-7.12-2.46,2.43-5,5.51-14,9-19.31A27.32,27.32,0,0,1,63,10.43Z" style="fill:#31826c"/><path d="M62.56,10.93c-11,6.88-15.49,19.23-20.33,30.14a32.17,32.17,0,0,1,4.83,1.6C49.68,32.49,55.29,19.21,62.56,10.93Z" style="fill:#31826c;opacity:0.8;mix-blend-mode:multiply"/><path d="M47.91,29.54c2.16-2.08,4.81-4.28,7.75-5.26a14.29,14.29,0,0,1,10.53.46,19.13,19.13,0,0,0-9.1,4,40.86,40.86,0,0,0-11.6,14.6c-1.75-.43-4.23-1.23-6-1.65A42.58,42.58,0,0,1,47.91,29.54Z" style="fill:#31826c"/><path d="M41.62,42.29c1.34.38,2.75.81,3.87,1.08a40.86,40.86,0,0,1,11.6-14.6,19.13,19.13,0,0,1,9.1-4l-.35-.17C54.67,24.07,45.89,33,41.62,42.29Z" style="fill:#31826c;opacity:0.8;mix-blend-mode:multiply"/><path d="M29.48,26.58a25.75,25.75,0,0,1,6.31,7.29A14,14,0,0,1,37.5,43,7.24,7.24,0,0,0,32,41.84c-.88-7.41-6.18-13.67-11.61-19.19C23.82,22.57,26.93,24.47,29.48,26.58Z" style="fill:#31826c"/><path d="M20.66,22.93C26,28.38,31.13,34.55,32,41.84a6.78,6.78,0,0,1,1.91-.12C33.18,34.06,27.8,26.83,20.66,22.93Z" style="fill:#31826c;opacity:0.8;mix-blend-mode:multiply"/><path d="M28.61,17a81.58,81.58,0,0,1,6.06,24l5.53-1c.43-12.2-6-24.43-16.62-31.71A32.3,32.3,0,0,1,28.61,17Z" style="fill:#31826c"/><path d="M25.71,10.22a21.89,21.89,0,0,0-2.13-2,32.3,32.3,0,0,1,5,8.71,81.58,81.58,0,0,1,6.06,24l2.77-.51C35.43,29.34,34,19.35,25.71,10.22Z" style="fill:#31826c;opacity:0.8;mix-blend-mode:multiply"/><path d="M43,40.83a20.08,20.08,0,0,1,11.83-7.48A21.48,21.48,0,0,1,69,35.24,31.93,31.93,0,0,0,47.09,42.5,18.22,18.22,0,0,0,43,40.83Z" style="fill:#31826c"/><path d="M44.37,41.27a19,19,0,0,1,2.72,1.23,32,32,0,0,1,21.43-7.28C60.14,33.82,50.52,36,44.37,41.27Z" style="fill:#31826c;opacity:0.8;mix-blend-mode:multiply"/><path d="M43.54,40.82c-1.3,0-4.35,1.17-5.65,1.15a51.28,51.28,0,0,0-3.39-25c4,1.36,7.16,5.45,8.34,10A31.52,31.52,0,0,1,43.54,40.82Z" style="fill:#31826c"/><path d="M41.34,39.45c1.23.4,3.62,2.5,4.85,2.91A53.9,53.9,0,0,1,58.93,20c-4.24,0-8.78,2.77-11.64,6.67A32.61,32.61,0,0,0,41.34,39.45Z" style="fill:#31826c"/><path d="M58.8,20.18A53.93,53.93,0,0,0,46.19,42.36a14.85,14.85,0,0,1-2.68-1.63C45.4,32.29,50.4,24.13,58.8,20.18Z" style="fill:#31826c;opacity:0.8;mix-blend-mode:multiply"/><path d="M57.3,75.12C54.44,89.44,44.12,94.77,30,92.36,14.88,89.79,8.29,81.58,11.16,67.27S20.85,37.2,40.38,40.52C61.51,44.12,60.17,60.81,57.3,75.12Z" style="fill:#efb738"/><g style="clip-path:url(#clip-path-4)"><path d="M49.48,35.65A131.62,131.62,0,0,1,9.3,52.83" style="fill:#f9c431"/><path d="M55.18,41a79,79,0,0,1-9.72,7.59C39.82,52.13,23,59,16.28,61c-3.85,1.1-7.76,2-11.7,2.8" style="fill:#f9c431"/><path d="M61.79,46.6C50.91,57.06,35.87,63.32,21.64,69.4A78.19,78.19,0,0,1,0,75.3" style="fill:#f9c431"/><path d="M64.89,56.32c-7.1,5.54-15.38,9.62-23.6,13.65C28.73,76.14,15.93,82.39,2,84.83" style="fill:#f9c431"/><path d="M66.22,64.06c-3.17,2.65-6.35,5.32-9.77,7.71a124.27,124.27,0,0,1-14.14,8.29C31.77,85.55,20.79,90.65,8.93,92.9" style="fill:#f9c431"/><path d="M67.18,73.32c-12.9,12-29.25,20.25-46,27.11a17,17,0,0,1-6.9,1.72" style="fill:#f9c431"/><path d="M42.44,28.72c.25,4.34,3,8.18,5.9,11.64,8.33,10,18.35,19.09,30.41,25.11" style="fill:#f9c431"/><path d="M31.54,28.68a54.11,54.11,0,0,0,4,6.22c5,7,10.07,14,16.55,19.81,5.45,4.91,11.79,8.89,18.09,12.84a25.69,25.69,0,0,0,5.11,2.69,32.53,32.53,0,0,1,4.44,1.47" style="fill:#f9c431"/><path d="M22.75,29a28.76,28.76,0,0,0,4,8.24A146.41,146.41,0,0,0,57.82,71.81,51,51,0,0,0,69.94,79.6a63.3,63.3,0,0,0,6.35,2.17" style="fill:#f9c431"/><path d="M13.56,34.37A140.52,140.52,0,0,0,62.19,85.1a58.16,58.16,0,0,0,9,4.76,15.67,15.67,0,0,1,4.7,2.39" style="fill:#f9c431"/><path d="M8.31,43c4.83,10.8,13.56,19.66,22.26,28.15q4.71,4.59,9.48,9.14C46.39,86.3,53,92.41,61.15,96.13" style="fill:#f9c431"/><path d="M5.77,56c4.63,8.59,11.92,15.68,19.13,22.6,8.85,8.49,18,17.11,29.43,22.37" style="fill:#f9c431"/><path d="M2.74,65.5,17.93,85.3a61.18,61.18,0,0,0,6.71,7.79,49.33,49.33,0,0,0,6.69,5.09c3.24,2.13,6.62,4.09,10,6" style="fill:#f9c431"/></g><path d="M47.12,42.38c5.21,7.63,3.8,19,1.74,29.25-2.81,14-11.51,20.29-23.46,19.7a43.23,43.23,0,0,0,4.59,1c14.13,2.41,24.45-2.92,27.31-17.24C59.83,62.55,61.16,48.14,47.12,42.38Z" style="fill:#efb738;mix-blend-mode:multiply"/><path d="M34.71,37.51c-5.32-.68-11,2-13.39,6.45a72.17,72.17,0,0,1,20-2.28C40.33,39.27,37.49,37.87,34.71,37.51Z" style="fill:#31826c"/><path d="M56.31,46.16c.82,1.31,1.78,3.25,1.43,3.34-7.78,2.07-15.29-7-14.49-9.92A13.05,13.05,0,0,1,51.1,41,13.6,13.6,0,0,1,56.31,46.16Z" style="fill:#31826c"/><path d="M34.57,17.12A51.23,51.23,0,0,1,37.89,42,15.38,15.38,0,0,0,41,41.32C42.48,32.81,40.92,23.55,34.57,17.12Z" style="fill:#31826c;opacity:0.8;mix-blend-mode:multiply"/><path d="M38,38.47a30.27,30.27,0,0,0-16.08,5.34,72,72,0,0,1,19.41-2.13A6.56,6.56,0,0,0,38,38.47Z" style="fill:#31826c;opacity:0.8;mix-blend-mode:multiply"/><path d="M34.38,45.71a15.28,15.28,0,0,0,.71,6.06,2.83,2.83,0,0,0,.81,1.58c4-3,7.16-6.48,7.52-11.2a4,4,0,0,0-.83-2.83,4.38,4.38,0,0,0-4-.63C36,40,34.78,43,34.38,45.71Z" style="fill:#31826c"/><path d="M43.42,42.15a4,4,0,0,0-.83-2.83,4.06,4.06,0,0,0-1.83-.79,79.89,79.89,0,0,0-4.89,14.79l0,0C39.87,50.35,43.06,46.87,43.42,42.15Z" style="fill:#31826c;opacity:0.8;mix-blend-mode:multiply"/><path d="M43.23,39.65c-.65,2.93,6.68,11.77,14.34,9.9A31.91,31.91,0,0,0,43.23,39.65Z" style="fill:#31826c;opacity:0.8;mix-blend-mode:multiply"/></g><rect x="42.03" y="86.29" width="9.6" height="3.76" rx="1.88" ry="1.88" style="fill:#f9c431"/><g style="clip-path:url(#clip-path-5)"><path d="M36.37,73.2A5.59,5.59,0,0,1,37.57,76a13,13,0,0,1-.46,5,14.71,14.71,0,0,0-3.28-.23c1-3.77-.22-7.7-3.56-11.11C33,70.5,35.33,71.76,36.37,73.2Z" style="fill:#31826c"/><path d="M30.39,69.85c3.25,3.38,4.46,7.26,3.44,11a18.37,18.37,0,0,1,2.37.08C36.52,77.06,36,72.63,30.39,69.85Z" style="fill:#31826c;opacity:0.8;mix-blend-mode:multiply"/><path d="M45.4,70.64a9.68,9.68,0,0,0-2.53,1.53,15.87,15.87,0,0,0-5.15,7.75.41.41,0,0,1-.35.3,1.31,1.31,0,0,1-.39,0l-3.2-.52A13.21,13.21,0,0,1,37,74.32,12.45,12.45,0,0,1,40.32,72,14,14,0,0,1,45.4,70.64Z" style="fill:#31826c"/><path d="M45,70.82c-6.25,1.68-8.17,5.72-9.9,9.06l1.9.31a1.31,1.31,0,0,0,.39,0,.41.41,0,0,0,.35-.3,15.87,15.87,0,0,1,5.15-7.75A9.72,9.72,0,0,1,45,70.82Z" style="fill:#31826c;opacity:0.8;mix-blend-mode:multiply"/><path d="M46.46,72.57a22,22,0,0,0-8,8.83c-1.08-.3-2.48-.38-3.57-.68,1.22-1.35,2.76-3.82,4.49-5.28A16,16,0,0,1,46.46,72.57Z" style="fill:#31826c"/><path d="M46.23,72.71C40.75,74.59,38.47,78,36.05,81c.82.14,1.7.24,2.42.44A22,22,0,0,1,46.23,72.71Z" style="fill:#31826c;opacity:0.8;mix-blend-mode:multiply"/><path d="M38.9,77.8a13.74,13.74,0,0,1,3.88-1.44,12.76,12.76,0,0,1,5.27.13,14.4,14.4,0,0,0-4.55,1.1,15.83,15.83,0,0,0-5.81,4c-.88-.12-2.12-.34-3-.45A14.89,14.89,0,0,1,38.9,77.8Z" style="fill:#31826c"/><path d="M35.75,81.29l1.94.3a15.83,15.83,0,0,1,5.81-4,14.4,14.4,0,0,1,4.55-1.1l-.17,0C42.28,76.31,37.88,78.75,35.75,81.29Z" style="fill:#31826c;opacity:0.8;mix-blend-mode:multiply"/><path d="M29.67,77a10.87,10.87,0,0,1,3.15,2,2.44,2.44,0,0,1,.86,2.48,6.2,6.2,0,0,0-2.75-.3c-.44-2-3.1-3.74-5.82-5.25A10.64,10.64,0,0,1,29.67,77Z" style="fill:#31826c"/><path d="M25.25,76c2.67,1.49,5.24,3.19,5.68,5.18a5,5,0,0,1,.95,0C31.52,79,28.82,77.06,25.25,76Z" style="fill:#31826c;opacity:0.8;mix-blend-mode:multiply"/><path d="M29.23,74.37a15,15,0,0,1,3,6.57L35,80.66c.22-3.34-3-6.69-8.32-8.68A9.51,9.51,0,0,1,29.23,74.37Z" style="fill:#31826c"/><path d="M27.78,72.51c-.18-.1-.85-.45-1.07-.53a9.51,9.51,0,0,1,2.52,2.39,15,15,0,0,1,3,6.57l1.39-.14C32.65,77.75,31.92,75,27.78,72.51Z" style="fill:#31826c;opacity:0.8;mix-blend-mode:multiply"/><path d="M36.41,80.89a12.85,12.85,0,0,1,5.93-2,18.85,18.85,0,0,1,7.11.51,25.7,25.7,0,0,0-11,2A14.4,14.4,0,0,0,36.41,80.89Z" style="fill:#31826c"/><path d="M37.12,81c.48.1.93.21,1.37.34a25.6,25.6,0,0,1,10.73-2C45,79,40.2,79.58,37.12,81Z" style="fill:#31826c;opacity:0.8;mix-blend-mode:multiply"/><path d="M36.71,80.89c-.65,0-2.18.32-2.83.31a8.44,8.44,0,0,0-1.7-6.85,5.8,5.8,0,0,1,4.18,2.75A4.87,4.87,0,0,1,36.71,80.89Z" style="fill:#31826c"/><path d="M35.61,80.51c.61.12,1.81.69,2.42.8a16,16,0,0,1,6.39-6.11A10.25,10.25,0,0,0,38.59,77,7.89,7.89,0,0,0,35.61,80.51Z" style="fill:#31826c"/><path d="M44.35,75.24A16,16,0,0,0,38,81.31a10.76,10.76,0,0,1-1.34-.44C37.64,78.56,40.14,76.32,44.35,75.24Z" style="fill:#31826c;opacity:0.8;mix-blend-mode:multiply"/><path d="M43.6,90.28C42.17,94.2,37,95.66,29.92,95c-7.56-.7-10.87-3-9.43-6.87s4.86-8.23,14.64-7.32C45.71,81.79,45,86.36,43.6,90.28Z" style="fill:#efb738"/><g style="clip-path:url(#clip-path-6)"><path d="M39.68,79.48a102,102,0,0,1-20.12,4.7" style="fill:#f9c431"/><path d="M42.54,80.94A44.28,44.28,0,0,1,37.67,83,135.31,135.31,0,0,1,23.05,86.4c-1.92.31-3.88.55-5.86.77" style="fill:#f9c431"/><path d="M45.85,82.47c-5.45,2.87-13,4.58-20.11,6.24A65.63,65.63,0,0,1,14.9,90.33" style="fill:#f9c431"/><path d="M47.4,85.13a89.56,89.56,0,0,1-11.82,3.74,118.23,118.23,0,0,1-19.7,4.07" style="fill:#f9c431"/><path d="M48.07,87.25c-1.59.73-3.18,1.46-4.89,2.11-2.23.86-4.65,1.58-7.09,2.27a96.88,96.88,0,0,1-16.71,3.52" style="fill:#f9c431"/><path d="M48.55,89.79c-6.46,3.27-14.65,5.54-23,7.42a15,15,0,0,1-3.46.47" style="fill:#f9c431"/><path d="M36.16,77.58c.12,1.19,1.52,2.24,3,3.18a52.7,52.7,0,0,0,15.23,6.88" style="fill:#f9c431"/><path d="M30.7,77.57a17.4,17.4,0,0,0,2,1.7A48.88,48.88,0,0,0,41,84.69a77.33,77.33,0,0,0,9.06,3.52,17.39,17.39,0,0,0,2.56.73c.74.14,1.53.21,2.22.4" style="fill:#f9c431"/><path d="M26.3,77.65a7.47,7.47,0,0,0,2,2.26,63.69,63.69,0,0,0,15.55,9.46,32.77,32.77,0,0,0,6.07,2.14c1,.23,2.11.41,3.18.59" style="fill:#f9c431"/><path d="M21.69,79.12C27.32,84.69,35.78,89.51,46.05,93a40.71,40.71,0,0,0,4.49,1.3,11,11,0,0,1,2.35.66" style="fill:#f9c431"/><path d="M19.06,81.47c2.42,3,6.8,5.38,11.15,7.71L35,91.68A46.15,46.15,0,0,0,45.53,96" style="fill:#f9c431"/><path d="M17.79,85c2.32,2.35,6,4.29,9.58,6.19a65.09,65.09,0,0,0,14.74,6.12" style="fill:#f9c431"/><path d="M16.27,87.65l7.61,5.42a26.51,26.51,0,0,0,3.36,2.13,28.55,28.55,0,0,0,3.35,1.39c1.63.58,3.32,1.12,5,1.66" style="fill:#f9c431"/></g><path d="M38.5,81.32c2.61,2.09,1.9,5.2.87,8-1.41,3.85-5.76,5.56-11.75,5.4.72.11,1.48.2,2.3.28,7.08.66,12.25-.8,13.68-4.72C44.87,86.84,45.53,82.89,38.5,81.32Z" style="fill:#efb738;mix-blend-mode:multiply"/><path d="M32.28,80c-2.66-.18-5.48.56-6.7,1.77a65.2,65.2,0,0,1,10-.62C35.1,80.47,33.68,80.08,32.28,80Z" style="fill:#31826c"/><path d="M43.11,82.35c.41.36.89.89.71.92-3.9.56-7.66-1.93-7.26-2.72a11.58,11.58,0,0,1,3.94.38A6.66,6.66,0,0,1,43.11,82.35Z" style="fill:#31826c"/><path d="M32.22,74.4a8.41,8.41,0,0,1,1.66,6.8A12.76,12.76,0,0,0,35.44,81C36.18,78.7,35.4,76.16,32.22,74.4Z" style="fill:#31826c;opacity:0.8;mix-blend-mode:multiply"/><path d="M33.94,80.25a24.36,24.36,0,0,0-8,1.46,65.16,65.16,0,0,1,9.72-.58A3.1,3.1,0,0,0,33.94,80.25Z" style="fill:#31826c;opacity:0.8;mix-blend-mode:multiply"/><path d="M32.12,82.23a2.41,2.41,0,0,0,.36,1.66.75.75,0,0,0,.4.43c2-.82,3.59-1.77,3.77-3.07a.79.79,0,0,0-.42-.77,3.73,3.73,0,0,0-2-.17A2.75,2.75,0,0,0,32.12,82.23Z" style="fill:#31826c"/><path d="M36.65,81.25a.79.79,0,0,0-.42-.77,3.11,3.11,0,0,0-.91-.22,16.23,16.23,0,0,0-2.45,4h0C34.87,83.5,36.47,82.55,36.65,81.25Z" style="fill:#31826c;opacity:0.8;mix-blend-mode:multiply"/><path d="M36.55,80.57c-.32.8,3.35,3.22,7.18,2.71A19.37,19.37,0,0,0,36.55,80.57Z" style="fill:#31826c;opacity:0.8;mix-blend-mode:multiply"/></g></g></g></g></svg>